# xmcd
#
# Track frame offsets:
#	150
#	16547
#	30142
#	40140
#	58545
#	76132
#	92595
#	105692
#	120377
#	134155
#	148017
#
# Disc length: 2150 seconds
# Revision: 0
# Processed by: cddbd v1.5.2PL0 Copyright (c) Steve Scherf et al.
# Submitted via: dBpowerAMP V12.0
#
DISCID=7e08640b
DTITLE=The Nitty Gritty Dirt Band - The Christmas Album
DYEAR=1997
DGENRE=Country
TTITLE0=Colorado Christmas
TTITLE1=We Three Kings
TTITLE2=Christmas Dinner
TTITLE3=One Christmas Tree
TTITLE4=Silent Night
TTITLE5=This Christmas Morning
TTITLE6=Silver Bells
TTITLE7=It Came Upon the Midnight Clear
TTITLE8=Love Has Brought Him Here
TTITLE9=The Little Drummer Boy
TTITLE10=Jingle Bells
EXTD=
EXTT0=
EXTT1=
EXTT2=
EXTT3=
EXTT4=
EXTT5=
EXTT6=
EXTT7=
EXTT8=
EXTT9=
EXTT10=
PLAYORDER=
